<svg width="18" height="18" viewBox="0 0 18 18" fill="none" xmlns="http://www.w3.org/2000/svg">
<path d="M10.825 10.825L3.99996 14L7.17496 7.175L14 4M8.99996 0.666667C7.90561 0.666667 6.82198 0.882215 5.81093 1.301C4.79988 1.71979 3.88122 2.33362 3.1074 3.10744C1.5446 4.67025 0.666626 6.78986 0.666626 9C0.666626 11.2101 1.5446 13.3298 3.1074 14.8926C3.88122 15.6664 4.79988 16.2802 5.81093 16.699C6.82198 17.1178 7.90561 17.3333 8.99996 17.3333C11.2101 17.3333 13.3297 16.4554 14.8925 14.8926C16.4553 13.3298 17.3333 11.2101 17.3333 9C17.3333 7.90565 17.1177 6.82202 16.699 5.81097C16.2802 4.79992 15.6663 3.88126 14.8925 3.10744C14.1187 2.33362 13.2 1.71979 12.189 1.301C11.1779 0.882215 10.0943 0.666667 8.99996 0.666667ZM8.99996 8.08333C8.75684 8.08333 8.52369 8.17991 8.35178 8.35182C8.17987 8.52373 8.08329 8.75688 8.08329 9C8.08329 9.24311 8.17987 9.47627 8.35178 9.64818C8.52369 9.82009 8.75684 9.91667 8.99996 9.91667C9.24307 9.91667 9.47623 9.82009 9.64814 9.64818C9.82005 9.47627 9.91663 9.24311 9.91663 9C9.91663 8.75688 9.82005 8.52373 9.64814 8.35182C9.47623 8.17991 9.24307 8.08333 8.99996 8.08333Z" fill="white"/>
</svg>
