<svg width="22" height="20" viewBox="0 0 22 20" fill="none" xmlns="http://www.w3.org/2000/svg">
<path d="M21 12H20C20 8.13 16.87 5 13 5H12V3.73C12.6 3.39 13 2.74 13 2C13 0.9 12.11 0 11 0C9.89 0 9 0.9 9 2C9 2.74 9.4 3.39 10 3.73V5H9C5.13 5 2 8.13 2 12H1C0.45 12 0 12.45 0 13V16C0 16.55 0.45 17 1 17H2V18C2 19.11 2.9 20 4 20H18C19.11 20 20 19.11 20 18V17H21C21.55 17 22 16.55 22 16V13C22 12.45 21.55 12 21 12ZM6.5 16C5.12 16 4 14.88 4 13.5C4 12.68 4.4 11.96 5 11.5L8.83 14.38C8.5 15.32 7.57 16 6.5 16ZM15.5 16C14.43 16 13.5 15.32 13.17 14.38L17 11.5C17.6 11.96 18 12.68 18 13.5C18 14.88 16.88 16 15.5 16Z" fill="#F25959"/>
</svg>
