<svg width="17" height="19" viewBox="0 0 17 19" fill="none" xmlns="http://www.w3.org/2000/svg">
<path d="M13.7917 3.40833L11.6833 5.025L12.4417 7.575L10.25 6.06667L8.05833 7.575L8.81666 5.025L6.70833 3.40833L9.36666 3.33333L10.25 0.833333L11.1333 3.33333L13.7917 3.40833ZM16.7083 9.16667L15.3417 10.2083L15.8333 11.8583L14.4167 10.8833L13 11.8583L13.4917 10.2083L12.125 9.16667L13.8417 9.125L14.4167 7.5L14.9917 9.125L16.7083 9.16667ZM14.8083 13.2917C15.5 13.225 16.2417 14.2083 15.8 14.8333C15.5333 15.2083 15.25 15.5583 14.9 15.8917C11.6417 19.1667 6.36666 19.1667 3.11666 15.8917C-0.141671 12.6417 -0.141671 7.35833 3.11666 4.10833C3.45 3.775 3.8 3.475 4.175 3.20833C4.8 2.76667 5.78333 3.50833 5.71666 4.2C5.49166 6.58333 6.29166 9.05833 8.125 10.8833C9.95 12.7167 12.4167 13.5167 14.8083 13.2917ZM13.4417 14.975C11.0833 14.8417 8.75 13.8667 6.94166 12.0833C5.13333 10.2583 4.16666 7.91667 4.03333 5.56667C1.69166 8.18333 1.78333 12.2 4.29166 14.7167C6.80833 17.225 10.825 17.3167 13.4417 14.975Z" fill="white"/>
</svg>
